<svg xmlns="http://www.w3.org/2000/svg" xmlns:xlink="http://www.w3.org/1999/xlink" xmlns:lucid="lucid" width="1260" height="887"><g transform="translate(-120 -180)" lucid:page-tab-id="HWEp-vi-RSFO"><path d="M140 200h300v323H140z" stroke="#333" stroke-width="2" fill="#fff"/><path d="M140 237.6h300m-300 99.6h300" stroke="#333" stroke-width="2" fill="none"/><use xlink:href="#a" transform="matrix(1,0,0,1,148,208) translate(76.1 14.6)"/><use xlink:href="#b" transform="matrix(1,0,0,1,148,208) translate(130.05 14.6)"/><use xlink:href="#c" transform="matrix(1,0,0,1,152,245.6) translate(100.3 45.6)"/><use xlink:href="#d" transform="matrix(1,0,0,1,152,245.6) translate(115.8 45.6)"/><use xlink:href="#c" transform="matrix(1,0,0,1,152,345.2) translate(94.4 45.39999999999999)"/><use xlink:href="#e" transform="matrix(1,0,0,1,152,345.2) translate(109.9 45.39999999999999)"/><use xlink:href="#c" transform="matrix(1,0,0,1,152,345.2) translate(104.32499999999999 67)"/><use xlink:href="#f" transform="matrix(1,0,0,1,152,345.2) translate(119.82499999999999 67)"/><use xlink:href="#g" transform="matrix(1,0,0,1,152,345.2) translate(81.82499999999999 88.6)"/><use xlink:href="#h" transform="matrix(1,0,0,1,152,345.2) translate(97.32499999999999 88.6)"/><use xlink:href="#g" transform="matrix(1,0,0,1,152,345.2) translate(81.05 110.20000000000002)"/><use xlink:href="#i" transform="matrix(1,0,0,1,152,345.2) translate(96.55 110.20000000000002)"/><use xlink:href="#j" transform="matrix(1,0,0,1,152,345.2) translate(138 131.8)"/><path d="M140 580h300v280H140z" stroke="#333" stroke-width="2" fill="#fff"/><path d="M140 617.6h300M140 727.9h300" stroke="#333" stroke-width="2" fill="none"/><use xlink:href="#k" transform="matrix(1,0,0,1,148,588) translate(118.025 14.6)"/><use xlink:href="#c" transform="matrix(1,0,0,1,152,625.6) translate(88.3 29.5)"/><use xlink:href="#l" transform="matrix(1,0,0,1,152,625.6) translate(103.8 29.5)"/><use xlink:href="#c" transform="matrix(1,0,0,1,152,625.6) translate(82.3 51.1)"/><use xlink:href="#m" transform="matrix(1,0,0,1,152,625.6) translate(97.8 51.1)"/><use xlink:href="#c" transform="matrix(1,0,0,1,152,625.6) translate(105.8 72.7)"/><use xlink:href="#n" transform="matrix(1,0,0,1,152,625.6) translate(121.3 72.7)"/><use xlink:href="#c" transform="matrix(1,0,0,1,152,735.9) translate(92.425 29.19999999999999)"/><use xlink:href="#o" transform="matrix(1,0,0,1,152,735.9) translate(107.925 29.19999999999999)"/><use xlink:href="#c" transform="matrix(1,0,0,1,152,735.9) translate(92.32499999999999 50.79999999999999)"/><use xlink:href="#p" transform="matrix(1,0,0,1,152,735.9) translate(107.82499999999999 50.79999999999999)"/><use xlink:href="#c" transform="matrix(1,0,0,1,152,735.9) translate(94.225 72.39999999999999)"/><use xlink:href="#q" transform="matrix(1,0,0,1,152,735.9) translate(109.725 72.39999999999999)"/><use xlink:href="#c" transform="matrix(1,0,0,1,152,735.9) translate(96.8 94)"/><use xlink:href="#r" transform="matrix(1,0,0,1,152,735.9) translate(112.3 94)"/><path d="M290 524.5v38.12" stroke="#333" fill="none"/><path d="M290.5 524.5h-1v-.5h1z" stroke="#333" stroke-width=".05" fill="#333"/><path d="M290 577.38l-4.64-14.26h9.28z" stroke="#333" fill="#333"/><path d="M660 211h300v429H660z" stroke="#333" stroke-width="2" fill="#fff"/><path d="M660 248.6h300M660 412.1h300" stroke="#333" stroke-width="2" fill="none"/><use xlink:href="#s" transform="matrix(1,0,0,1,668,219) translate(118.25 14.6)"/><use xlink:href="#c" transform="matrix(1,0,0,1,672,256.6) translate(83.35 34.39999999999999)"/><use xlink:href="#t" transform="matrix(1,0,0,1,672,256.6) translate(98.85 34.39999999999999)"/><use xlink:href="#c" transform="matrix(1,0,0,1,672,256.6) translate(105.775 55.99999999999999)"/><use xlink:href="#u" transform="matrix(1,0,0,1,672,256.6) translate(121.275 55.99999999999999)"/><use xlink:href="#c" transform="matrix(1,0,0,1,672,256.6) translate(88.325 77.6)"/><use xlink:href="#v" transform="matrix(1,0,0,1,672,256.6) translate(103.825 77.6)"/><use xlink:href="#c" transform="matrix(1,0,0,1,672,256.6) translate(99.3 99.20000000000002)"/><use xlink:href="#w" transform="matrix(1,0,0,1,672,256.6) translate(114.8 99.20000000000002)"/><use xlink:href="#c" transform="matrix(1,0,0,1,672,256.6) translate(99.825 120.80000000000001)"/><use xlink:href="#x" transform="matrix(1,0,0,1,672,256.6) translate(115.325 120.80000000000001)"/><g><use xlink:href="#c" transform="matrix(1,0,0,1,672,420.1) translate(92.425 34.50000000000001)"/><use xlink:href="#o" transform="matrix(1,0,0,1,672,420.1) translate(107.925 34.50000000000001)"/><use xlink:href="#c" transform="matrix(1,0,0,1,672,420.1) translate(92.32499999999999 56.10000000000001)"/><use xlink:href="#p" transform="matrix(1,0,0,1,672,420.1) translate(107.82499999999999 56.10000000000001)"/><use xlink:href="#y" transform="matrix(1,0,0,1,672,420.1) translate(99.3 77.70000000000002)"/><use xlink:href="#c" transform="matrix(1,0,0,1,672,420.1) translate(111.8 99.30000000000003)"/><use xlink:href="#z" transform="matrix(1,0,0,1,672,420.1) translate(127.3 99.30000000000003)"/><use xlink:href="#c" transform="matrix(1,0,0,1,672,420.1) translate(51.900000000000006 120.90000000000002)"/><use xlink:href="#A" transform="matrix(1,0,0,1,672,420.1) translate(67.4 120.90000000000002)"/><use xlink:href="#c" transform="matrix(1,0,0,1,672,420.1) translate(68.375 142.50000000000003)"/><use xlink:href="#B" transform="matrix(1,0,0,1,672,420.1) translate(83.875 142.50000000000003)"/><use xlink:href="#c" transform="matrix(1,0,0,1,672,420.1) translate(59.400000000000006 164.1)"/><use xlink:href="#C" transform="matrix(1,0,0,1,672,420.1) translate(74.9 164.1)"/><use xlink:href="#c" transform="matrix(1,0,0,1,672,420.1) translate(102.32499999999999 185.70000000000002)"/><use xlink:href="#D" transform="matrix(1,0,0,1,672,420.1) translate(117.82499999999999 185.70000000000002)"/></g><path d="M441.5 720H538c6.63 0 12-5.37 12-12V437.5c0-6.63 5.37-12 12-12h80.62" stroke="#333" fill="none"/><path d="M441.5 720.5h-.5v-1h.5z" stroke="#333" stroke-width=".05" fill="#333"/><path d="M657.38 425.5l-14.26 4.64v-9.28z" stroke="#333" fill="#333"/><path d="M660 740h300v307H660z" stroke="#333" stroke-width="2" fill="#fff"/><path d="M660 777.6h300M660 966.3h300" stroke="#333" stroke-width="2" fill="none"/><g><use xlink:href="#E" transform="matrix(1,0,0,1,668,748) translate(127.9 14.6)"/></g><g><use xlink:href="#c" transform="matrix(1,0,0,1,672,785.6) translate(100.75 25.300000000000004)"/><use xlink:href="#F" transform="matrix(1,0,0,1,672,785.6) translate(116.25 25.300000000000004)"/><use xlink:href="#c" transform="matrix(1,0,0,1,672,785.6) translate(98.325 46.900000000000006)"/><use xlink:href="#G" transform="matrix(1,0,0,1,672,785.6) translate(113.825 46.900000000000006)"/><use xlink:href="#c" transform="matrix(1,0,0,1,672,785.6) translate(110.25 68.50000000000001)"/><use xlink:href="#H" transform="matrix(1,0,0,1,672,785.6) translate(125.75 68.50000000000001)"/><use xlink:href="#c" transform="matrix(1,0,0,1,672,785.6) translate(118.8 90.10000000000002)"/><use xlink:href="#I" transform="matrix(1,0,0,1,672,785.6) translate(134.3 90.10000000000002)"/><use xlink:href="#J" transform="matrix(1,0,0,1,672,785.6) translate(90.82499999999999 111.70000000000002)"/><use xlink:href="#K" transform="matrix(1,0,0,1,672,785.6) translate(111.275 133.3)"/><use xlink:href="#L" transform="matrix(1,0,0,1,672,785.6) translate(105.25 154.9)"/></g><g><use xlink:href="#g" transform="matrix(1,0,0,1,672,974.3) translate(65.39999999999999 25.299999999999997)"/><use xlink:href="#M" transform="matrix(1,0,0,1,672,974.3) translate(80.89999999999999 25.299999999999997)"/><use xlink:href="#g" transform="matrix(1,0,0,1,672,974.3) translate(88.82499999999999 46.9)"/><use xlink:href="#N" transform="matrix(1,0,0,1,672,974.3) translate(104.32499999999999 46.9)"/></g><path d="M810 641.5v81.12" stroke="#333" fill="none"/><path d="M810.5 641.5h-1v-.5h1z" stroke="#333" stroke-width=".05" fill="#333"/><path d="M810 737.38l-4.64-14.26h9.28z" stroke="#333" fill="#333"/><path d="M1100 440h260v285h-260z" stroke="#333" stroke-width="2" fill="#fff"/><path d="M1100 477.6h260m-260 102.3h260" stroke="#333" stroke-width="2" fill="none"/><g><use xlink:href="#O" transform="matrix(1,0,0,1,1108,448) translate(102.55 14.6)"/></g><g><use xlink:href="#g" transform="matrix(1,0,0,1,1112,485.6) translate(76.275 25.5)"/><use xlink:href="#P" transform="matrix(1,0,0,1,1112,485.6) translate(91.775 25.5)"/><use xlink:href="#Q" transform="matrix(1,0,0,1,1112,485.6) translate(87.775 47.1)"/><use xlink:href="#c" transform="matrix(1,0,0,1,1112,485.6) translate(88.275 68.7)"/><use xlink:href="#R" transform="matrix(1,0,0,1,1112,485.6) translate(103.775 68.7)"/></g><g><use xlink:href="#c" transform="matrix(1,0,0,1,1112,587.9) translate(72.32499999999999 25.39999999999999)"/><use xlink:href="#p" transform="matrix(1,0,0,1,1112,587.9) translate(87.82499999999999 25.39999999999999)"/><use xlink:href="#c" transform="matrix(1,0,0,1,1112,587.9) translate(76.8 46.99999999999999)"/><use xlink:href="#S" transform="matrix(1,0,0,1,1112,587.9) translate(92.3 46.99999999999999)"/><use xlink:href="#c" transform="matrix(1,0,0,1,1112,587.9) translate(57.87499999999999 68.6)"/><use xlink:href="#T" transform="matrix(1,0,0,1,1112,587.9) translate(73.375 68.6)"/><use xlink:href="#c" transform="matrix(1,0,0,1,1112,587.9) translate(59.525 90.20000000000002)"/><use xlink:href="#U" transform="matrix(1,0,0,1,1112,587.9) translate(75.025 90.20000000000002)"/><use xlink:href="#g" transform="matrix(1,0,0,1,1112,587.9) translate(53.07499999999999 111.80000000000001)"/><use xlink:href="#V" transform="matrix(1,0,0,1,1112,587.9) translate(68.57499999999999 111.80000000000001)"/></g><path d="M441.5 740.54H538c6.63 0 12 5.37 12 12v200.82c0 6.62 5.37 12 12 12h80.62" stroke="#333" fill="none"/><path d="M441.5 741.04h-.5v-1h.5z" stroke="#333" stroke-width=".05" fill="#333"/><path d="M657.38 965.36L643.12 970v-9.28z" stroke="#333" fill="#333"/><path d="M961.5 425.5h56.5c6.63 0 12 5.37 12 12v133c0 6.63 5.37 12 12 12h40.62" stroke="#333" fill="none"/><path d="M961.5 426h-.5v-1h.5z" stroke="#333" stroke-width=".05" fill="#333"/><path d="M1097.38 582.5l-14.26 4.64v-9.28z" stroke="#333" fill="#333"/><defs><path fill="#333" d="M143 4C61 4 22-44 18-125c-5-107 100-154 193-111 17 8 29 25 37 43l-32 9c-13-25-37-40-76-40-61 0-88 39-88 99 0 61 29 100 91 101 35 0 62-11 79-27v-45h-74v-28h105v86C228-13 192 4 143 4" id="W"/><path fill="#333" d="M141-36C126-15 110 5 73 4 37 3 15-17 15-53c-1-64 63-63 125-63 3-35-9-54-41-54-24 1-41 7-42 31l-33-3c5-37 33-52 76-52 45 0 72 20 72 64v82c-1 20 7 32 28 27v20c-31 9-61-2-59-35zM48-53c0 20 12 33 32 33 41-3 63-29 60-74-43 2-92-5-92 41" id="X"/><path fill="#333" d="M210-169c-67 3-38 105-44 169h-31v-121c0-29-5-50-35-48C34-165 62-65 56 0H25l-1-190h30c1 10-1 24 2 32 10-44 99-50 107 0 11-21 27-35 58-36 85-2 47 119 55 194h-31v-121c0-29-5-49-35-48" id="Y"/><path fill="#333" d="M100-194c63 0 86 42 84 106H49c0 40 14 67 53 68 26 1 43-12 49-29l28 8c-11 28-37 45-77 45C44 4 14-33 15-96c1-61 26-98 85-98zm52 81c6-60-76-77-97-28-3 7-6 17-6 28h103" id="Z"/><g id="a"><use transform="matrix(0.05,0,0,0.05,0,0)" xlink:href="#W"/><use transform="matrix(0.05,0,0,0.05,14,0)" xlink:href="#X"/><use transform="matrix(0.05,0,0,0.05,24,0)" xlink:href="#Y"/><use transform="matrix(0.05,0,0,0.05,38.95,0)" xlink:href="#Z"/></g><path fill="#333" d="M212-179c-10-28-35-45-73-45-59 0-87 40-87 99 0 60 29 101 89 101 43 0 62-24 78-52l27 14C228-24 195 4 139 4 59 4 22-46 18-125c-6-104 99-153 187-111 19 9 31 26 39 46" id="aa"/><path fill="#333" d="M100-194c62-1 85 37 85 99 1 63-27 99-86 99S16-35 15-95c0-66 28-99 85-99zM99-20c44 1 53-31 53-75 0-43-8-75-51-75s-53 32-53 75 10 74 51 75" id="ab"/><path fill="#333" d="M117-194c89-4 53 116 60 194h-32v-121c0-31-8-49-39-48C34-167 62-67 57 0H25l-1-190h30c1 10-1 24 2 32 11-22 29-35 61-36" id="ac"/><path fill="#333" d="M59-47c-2 24 18 29 38 22v24C64 9 27 4 27-40v-127H5v-23h24l9-43h21v43h35v23H59v120" id="ad"/><path fill="#333" d="M24-231v-30h32v30H24zM24 0v-190h32V0H24" id="ae"/><path fill="#333" d="M114-163C36-179 61-72 57 0H25l-1-190h30c1 12-1 29 2 39 6-27 23-49 58-41v29" id="af"/><g id="b"><use transform="matrix(0.05,0,0,0.05,0,0)" xlink:href="#aa"/><use transform="matrix(0.05,0,0,0.05,12.950000000000001,0)" xlink:href="#ab"/><use transform="matrix(0.05,0,0,0.05,22.950000000000003,0)" xlink:href="#ac"/><use transform="matrix(0.05,0,0,0.05,32.95,0)" xlink:href="#ad"/><use transform="matrix(0.05,0,0,0.05,37.95,0)" xlink:href="#X"/><use transform="matrix(0.05,0,0,0.05,47.95,0)" xlink:href="#ae"/><use transform="matrix(0.05,0,0,0.05,51.900000000000006,0)" xlink:href="#ac"/><use transform="matrix(0.05,0,0,0.05,61.900000000000006,0)" xlink:href="#Z"/><use transform="matrix(0.05,0,0,0.05,71.9,0)" xlink:href="#af"/></g><path fill="#333" d="M118-107v75H92v-75H18v-26h74v-75h26v75h74v26h-74" id="ag"/><use transform="matrix(0.05,0,0,0.05,0,0)" xlink:href="#ag" id="c"/><path fill="#333" d="M84 4C-5 8 30-112 23-190h32v120c0 31 7 50 39 49 72-2 45-101 50-169h31l1 190h-30c-1-10 1-25-2-33-11 22-28 36-60 37" id="ah"/><path fill="#333" d="M177-190C167-65 218 103 67 71c-23-6-38-20-44-43l32-5c15 47 100 32 89-28v-30C133-14 115 1 83 1 29 1 15-40 15-95c0-56 16-97 71-98 29-1 48 16 59 35 1-10 0-23 2-32h30zM94-22c36 0 50-32 50-73 0-42-14-75-50-75-39 0-46 34-46 75s6 73 46 73" id="ai"/><g id="d"><use transform="matrix(0.05,0,0,0.05,0,0)" xlink:href="#af"/><use transform="matrix(0.05,0,0,0.05,5.95,0)" xlink:href="#ah"/><use transform="matrix(0.05,0,0,0.05,15.949999999999998,0)" xlink:href="#ac"/><use transform="matrix(0.05,0,0,0.05,25.950000000000003,0)" xlink:href="#ac"/><use transform="matrix(0.05,0,0,0.05,35.95,0)" xlink:href="#ae"/><use transform="matrix(0.05,0,0,0.05,39.900000000000006,0)" xlink:href="#ac"/><use transform="matrix(0.05,0,0,0.05,49.900000000000006,0)" xlink:href="#ai"/></g><path fill="#333" d="M24 0v-261h32V0H24" id="aj"/><path fill="#333" d="M9 0v-24l116-142H16v-24h144v24L44-24h123V0H9" id="ak"/><path fill="#333" d="M87 75C49 33 22-17 22-94c0-76 28-126 65-167h31c-38 41-64 92-64 168S80 34 118 75H87" id="al"/><path fill="#333" d="M33-261c38 41 65 92 65 168S71 34 33 75H2C39 34 66-17 66-93S39-220 2-261h31" id="am"/><g id="e"><use transform="matrix(0.05,0,0,0.05,0,0)" xlink:href="#ae"/><use transform="matrix(0.05,0,0,0.05,3.95,0)" xlink:href="#ac"/><use transform="matrix(0.05,0,0,0.05,13.949999999999998,0)" xlink:href="#ad"/><use transform="matrix(0.05,0,0,0.05,18.95,0)" xlink:href="#ae"/><use transform="matrix(0.05,0,0,0.05,22.9,0)" xlink:href="#X"/><use transform="matrix(0.05,0,0,0.05,32.9,0)" xlink:href="#aj"/><use transform="matrix(0.05,0,0,0.05,36.85,0)" xlink:href="#ae"/><use transform="matrix(0.05,0,0,0.05,40.800000000000004,0)" xlink:href="#ak"/><use transform="matrix(0.05,0,0,0.05,49.800000000000004,0)" xlink:href="#Z"/><use transform="matrix(0.05,0,0,0.05,59.800000000000004,0)" xlink:href="#al"/><use transform="matrix(0.05,0,0,0.05,65.75,0)" xlink:href="#am"/></g><path fill="#333" d="M135-143c-3-34-86-38-87 0 15 53 115 12 119 90S17 21 10-45l28-5c4 36 97 45 98 0-10-56-113-15-118-90-4-57 82-63 122-42 12 7 21 19 24 35" id="an"/><g id="f"><use transform="matrix(0.05,0,0,0.05,0,0)" xlink:href="#af"/><use transform="matrix(0.05,0,0,0.05,5.95,0)" xlink:href="#Z"/><use transform="matrix(0.05,0,0,0.05,15.949999999999998,0)" xlink:href="#an"/><use transform="matrix(0.05,0,0,0.05,24.95,0)" xlink:href="#Z"/><use transform="matrix(0.05,0,0,0.05,34.95,0)" xlink:href="#ad"/><use transform="matrix(0.05,0,0,0.05,39.95,0)" xlink:href="#al"/><use transform="matrix(0.05,0,0,0.05,45.900000000000006,0)" xlink:href="#am"/></g><use transform="matrix(0.05,0,0,0.05,0,0)" xlink:href="#ag" id="g"/><path fill="#333" d="M30 0v-248h33v221h125V0H30" id="ao"/><path fill="#333" d="M115-194c55 1 70 41 70 98S169 2 115 4C84 4 66-9 55-30l1 105H24l-1-265h31l2 30c10-21 28-34 59-34zm-8 174c40 0 45-34 45-75s-6-73-45-74c-42 0-51 32-51 76 0 43 10 73 51 73" id="ap"/><g id="h"><use transform="matrix(0.05,0,0,0.05,0,0)" xlink:href="#ai"/><use transform="matrix(0.05,0,0,0.05,10,0)" xlink:href="#X"/><use transform="matrix(0.05,0,0,0.05,20,0)" xlink:href="#Y"/><use transform="matrix(0.05,0,0,0.05,34.95,0)" xlink:href="#Z"/><use transform="matrix(0.05,0,0,0.05,44.95,0)" xlink:href="#ao"/><use transform="matrix(0.05,0,0,0.05,54.95,0)" xlink:href="#ab"/><use transform="matrix(0.05,0,0,0.05,64.95,0)" xlink:href="#ab"/><use transform="matrix(0.05,0,0,0.05,74.95,0)" xlink:href="#ap"/><use transform="matrix(0.05,0,0,0.05,84.95,0)" xlink:href="#al"/><use transform="matrix(0.05,0,0,0.05,90.9,0)" xlink:href="#am"/></g><path fill="#333" d="M96-169c-40 0-48 33-48 73s9 75 48 75c24 0 41-14 43-38l32 2c-6 37-31 61-74 61-59 0-76-41-82-99-10-93 101-131 147-64 4 7 5 14 7 22l-32 3c-4-21-16-35-41-35" id="aq"/><path fill="#333" d="M266 0h-40l-56-210L115 0H75L2-248h35L96-30l15-64 43-154h32l59 218 59-218h35" id="ar"/><path fill="#333" d="M85-194c31 0 48 13 60 33l-1-100h32l1 261h-30c-2-10 0-23-3-31C134-8 116 4 85 4 32 4 16-35 15-94c0-66 23-100 70-100zm9 24c-40 0-46 34-46 75 0 40 6 74 45 74 42 0 51-32 51-76 0-42-9-74-50-73" id="as"/><g id="i"><use transform="matrix(0.05,0,0,0.05,0,0)" xlink:href="#an"/><use transform="matrix(0.05,0,0,0.05,9,0)" xlink:href="#aq"/><use transform="matrix(0.05,0,0,0.05,18,0)" xlink:href="#ab"/><use transform="matrix(0.05,0,0,0.05,28,0)" xlink:href="#af"/><use transform="matrix(0.05,0,0,0.05,33.95,0)" xlink:href="#Z"/><use transform="matrix(0.05,0,0,0.05,43.95,0)" xlink:href="#ar"/><use transform="matrix(0.05,0,0,0.05,60.54999999999999,0)" xlink:href="#ab"/><use transform="matrix(0.05,0,0,0.05,70.55,0)" xlink:href="#af"/><use transform="matrix(0.05,0,0,0.05,76.5,0)" xlink:href="#as"/><use transform="matrix(0.05,0,0,0.05,86.5,0)" xlink:href="#al"/><use transform="matrix(0.05,0,0,0.05,92.45,0)" xlink:href="#am"/></g><path fill="#333" d="M160-131c35 5 61 23 61 61C221 17 115-2 30 0v-248c76 3 177-17 177 60 0 33-19 50-47 57zm-97-11c50-1 110 9 110-42 0-47-63-36-110-37v79zm0 115c55-2 124 14 124-45 0-56-70-42-124-44v89" id="at"/><g id="k"><use transform="matrix(0.05,0,0,0.05,0,0)" xlink:href="#at"/><use transform="matrix(0.05,0,0,0.05,12,0)" xlink:href="#ab"/><use transform="matrix(0.05,0,0,0.05,22,0)" xlink:href="#X"/><use transform="matrix(0.05,0,0,0.05,32,0)" xlink:href="#af"/><use transform="matrix(0.05,0,0,0.05,37.95,0)" xlink:href="#as"/></g><path fill="#333" d="M140-251c81 0 123 46 123 126C263-46 219 4 140 4 59 4 17-45 17-125s42-126 123-126zm0 227c63 0 89-41 89-101s-29-99-89-99c-61 0-89 39-89 99S79-25 140-24" id="au"/><path fill="#333" d="M108 0H70L1-190h34L89-25l56-165h34" id="av"/><g id="l"><use transform="matrix(0.05,0,0,0.05,0,0)" xlink:href="#ai"/><use transform="matrix(0.05,0,0,0.05,10,0)" xlink:href="#X"/><use transform="matrix(0.05,0,0,0.05,20,0)" xlink:href="#Y"/><use transform="matrix(0.05,0,0,0.05,34.95,0)" xlink:href="#Z"/><use transform="matrix(0.05,0,0,0.05,44.95,0)" xlink:href="#au"/><use transform="matrix(0.05,0,0,0.05,58.95,0)" xlink:href="#av"/><use transform="matrix(0.05,0,0,0.05,67.95,0)" xlink:href="#Z"/><use transform="matrix(0.05,0,0,0.05,77.95,0)" xlink:href="#af"/></g><path fill="#333" d="M115-194c53 0 69 39 70 98 0 66-23 100-70 100C84 3 66-7 56-30L54 0H23l1-261h32v101c10-23 28-34 59-34zm-8 174c40 0 45-34 45-75 0-40-5-75-45-74-42 0-51 32-51 76 0 43 10 73 51 73" id="aw"/><path fill="#333" d="M205 0l-28-72H64L36 0H1l101-248h38L239 0h-34zm-38-99l-47-123c-12 45-31 82-46 123h93" id="ax"/><g id="m"><use transform="matrix(0.05,0,0,0.05,0,0)" xlink:href="#aw"/><use transform="matrix(0.05,0,0,0.05,10,0)" xlink:href="#ab"/><use transform="matrix(0.05,0,0,0.05,20,0)" xlink:href="#X"/><use transform="matrix(0.05,0,0,0.05,30,0)" xlink:href="#af"/><use transform="matrix(0.05,0,0,0.05,35.95,0)" xlink:href="#as"/><use transform="matrix(0.05,0,0,0.05,45.95,0)" xlink:href="#ax"/><use transform="matrix(0.05,0,0,0.05,57.95,0)" xlink:href="#aq"/><use transform="matrix(0.05,0,0,0.05,66.95,0)" xlink:href="#ad"/><use transform="matrix(0.05,0,0,0.05,71.95,0)" xlink:href="#ah"/><use transform="matrix(0.05,0,0,0.05,81.95,0)" xlink:href="#X"/><use transform="matrix(0.05,0,0,0.05,91.95,0)" xlink:href="#aj"/></g><path fill="#333" d="M179-190L93 31C79 59 56 82 12 73V49c39 6 53-20 64-50L1-190h34L92-34l54-156h33" id="ay"/><g id="n"><use transform="matrix(0.05,0,0,0.05,0,0)" xlink:href="#ap"/><use transform="matrix(0.05,0,0,0.05,10,0)" xlink:href="#aj"/><use transform="matrix(0.05,0,0,0.05,13.949999999999998,0)" xlink:href="#X"/><use transform="matrix(0.05,0,0,0.05,23.95,0)" xlink:href="#ay"/><use transform="matrix(0.05,0,0,0.05,32.95,0)" xlink:href="#Z"/><use transform="matrix(0.05,0,0,0.05,42.95,0)" xlink:href="#af"/></g><g id="o"><use transform="matrix(0.05,0,0,0.05,0,0)" xlink:href="#ae"/><use transform="matrix(0.05,0,0,0.05,3.95,0)" xlink:href="#ac"/><use transform="matrix(0.05,0,0,0.05,13.949999999999998,0)" xlink:href="#ae"/><use transform="matrix(0.05,0,0,0.05,17.9,0)" xlink:href="#ad"/><use transform="matrix(0.05,0,0,0.05,22.9,0)" xlink:href="#ae"/><use transform="matrix(0.05,0,0,0.05,26.849999999999994,0)" xlink:href="#X"/><use transform="matrix(0.05,0,0,0.05,36.849999999999994,0)" xlink:href="#aj"/><use transform="matrix(0.05,0,0,0.05,40.8,0)" xlink:href="#ae"/><use transform="matrix(0.05,0,0,0.05,44.75,0)" xlink:href="#ak"/><use transform="matrix(0.05,0,0,0.05,53.75,0)" xlink:href="#Z"/><use transform="matrix(0.05,0,0,0.05,63.75,0)" xlink:href="#al"/><use transform="matrix(0.05,0,0,0.05,69.7,0)" xlink:href="#am"/></g><g id="p"><use transform="matrix(0.05,0,0,0.05,0,0)" xlink:href="#as"/><use transform="matrix(0.05,0,0,0.05,10,0)" xlink:href="#Z"/><use transform="matrix(0.05,0,0,0.05,20,0)" xlink:href="#an"/><use transform="matrix(0.05,0,0,0.05,29,0)" xlink:href="#ad"/><use transform="matrix(0.05,0,0,0.05,34,0)" xlink:href="#af"/><use transform="matrix(0.05,0,0,0.05,39.95,0)" xlink:href="#ah"/><use transform="matrix(0.05,0,0,0.05,49.95,0)" xlink:href="#aq"/><use transform="matrix(0.05,0,0,0.05,58.95,0)" xlink:href="#ad"/><use transform="matrix(0.05,0,0,0.05,63.95,0)" xlink:href="#al"/><use transform="matrix(0.05,0,0,0.05,69.9,0)" xlink:href="#am"/></g><path fill="#333" d="M143 0L79-87 56-68V0H24v-261h32v163l83-92h37l-77 82L181 0h-38" id="az"/><path fill="#333" d="M127-220V0H93v-220H8v-28h204v28h-85" id="aA"/><g id="q"><use transform="matrix(0.05,0,0,0.05,0,0)" xlink:href="#ap"/><use transform="matrix(0.05,0,0,0.05,10,0)" xlink:href="#ae"/><use transform="matrix(0.05,0,0,0.05,13.949999999999998,0)" xlink:href="#aq"/><use transform="matrix(0.05,0,0,0.05,22.95,0)" xlink:href="#az"/><use transform="matrix(0.05,0,0,0.05,31.950000000000003,0)" xlink:href="#aA"/><use transform="matrix(0.05,0,0,0.05,42.25,0)" xlink:href="#ae"/><use transform="matrix(0.05,0,0,0.05,46.2,0)" xlink:href="#aj"/><use transform="matrix(0.05,0,0,0.05,50.150000000000006,0)" xlink:href="#Z"/><use transform="matrix(0.05,0,0,0.05,60.150000000000006,0)" xlink:href="#al"/><use transform="matrix(0.05,0,0,0.05,66.10000000000001,0)" xlink:href="#am"/></g><g id="r"><use transform="matrix(0.05,0,0,0.05,0,0)" xlink:href="#ah"/><use transform="matrix(0.05,0,0,0.05,10,0)" xlink:href="#ap"/><use transform="matrix(0.05,0,0,0.05,20,0)" xlink:href="#as"/><use transform="matrix(0.05,0,0,0.05,30,0)" xlink:href="#X"/><use transform="matrix(0.05,0,0,0.05,40,0)" xlink:href="#ad"/><use transform="matrix(0.05,0,0,0.05,45,0)" xlink:href="#Z"/><use transform="matrix(0.05,0,0,0.05,55,0)" xlink:href="#al"/><use transform="matrix(0.05,0,0,0.05,60.95,0)" xlink:href="#am"/></g><g id="s"><use transform="matrix(0.05,0,0,0.05,0,0)" xlink:href="#ar"/><use transform="matrix(0.05,0,0,0.05,16.599999999999998,0)" xlink:href="#ab"/><use transform="matrix(0.05,0,0,0.05,26.599999999999994,0)" xlink:href="#af"/><use transform="matrix(0.05,0,0,0.05,32.55,0)" xlink:href="#Y"/></g><path fill="#333" d="M206 0h-36l-40-164L89 0H53L-1-190h32L70-26l43-164h34l41 164 42-164h31" id="aB"/><g id="t"><use transform="matrix(0.05,0,0,0.05,0,0)" xlink:href="#aB"/><use transform="matrix(0.05,0,0,0.05,12.950000000000001,0)" xlink:href="#ab"/><use transform="matrix(0.05,0,0,0.05,22.950000000000003,0)" xlink:href="#af"/><use transform="matrix(0.05,0,0,0.05,28.900000000000002,0)" xlink:href="#Y"/><use transform="matrix(0.05,0,0,0.05,43.85,0)" xlink:href="#ax"/><use transform="matrix(0.05,0,0,0.05,55.85,0)" xlink:href="#aq"/><use transform="matrix(0.05,0,0,0.05,64.85,0)" xlink:href="#ad"/><use transform="matrix(0.05,0,0,0.05,69.85,0)" xlink:href="#ah"/><use transform="matrix(0.05,0,0,0.05,79.85,0)" xlink:href="#X"/><use transform="matrix(0.05,0,0,0.05,89.85,0)" xlink:href="#aj"/></g><g id="u"><use transform="matrix(0.05,0,0,0.05,0,0)" xlink:href="#Z"/><use transform="matrix(0.05,0,0,0.05,10,0)" xlink:href="#X"/><use transform="matrix(0.05,0,0,0.05,20,0)" xlink:href="#ad"/><use transform="matrix(0.05,0,0,0.05,25,0)" xlink:href="#ae"/><use transform="matrix(0.05,0,0,0.05,28.950000000000003,0)" xlink:href="#ac"/><use transform="matrix(0.05,0,0,0.05,38.95,0)" xlink:href="#ai"/></g><g id="v"><use transform="matrix(0.05,0,0,0.05,0,0)" xlink:href="#ab"/><use transform="matrix(0.05,0,0,0.05,10,0)" xlink:href="#af"/><use transform="matrix(0.05,0,0,0.05,15.949999999999998,0)" xlink:href="#ae"/><use transform="matrix(0.05,0,0,0.05,19.9,0)" xlink:href="#Z"/><use transform="matrix(0.05,0,0,0.05,29.899999999999995,0)" xlink:href="#ac"/><use transform="matrix(0.05,0,0,0.05,39.9,0)" xlink:href="#ad"/><use transform="matrix(0.05,0,0,0.05,44.9,0)" xlink:href="#X"/><use transform="matrix(0.05,0,0,0.05,54.900000000000006,0)" xlink:href="#ad"/><use transform="matrix(0.05,0,0,0.05,59.900000000000006,0)" xlink:href="#ae"/><use transform="matrix(0.05,0,0,0.05,63.85,0)" xlink:href="#ab"/><use transform="matrix(0.05,0,0,0.05,73.85,0)" xlink:href="#ac"/></g><g id="w"><use transform="matrix(0.05,0,0,0.05,0,0)" xlink:href="#aj"/><use transform="matrix(0.05,0,0,0.05,3.95,0)" xlink:href="#ab"/><use transform="matrix(0.05,0,0,0.05,13.949999999999998,0)" xlink:href="#aq"/><use transform="matrix(0.05,0,0,0.05,22.95,0)" xlink:href="#X"/><use transform="matrix(0.05,0,0,0.05,32.95,0)" xlink:href="#ad"/><use transform="matrix(0.05,0,0,0.05,37.95,0)" xlink:href="#ae"/><use transform="matrix(0.05,0,0,0.05,41.900000000000006,0)" xlink:href="#ab"/><use transform="matrix(0.05,0,0,0.05,51.900000000000006,0)" xlink:href="#ac"/></g><g id="x"><use transform="matrix(0.05,0,0,0.05,0,0)" xlink:href="#aq"/><use transform="matrix(0.05,0,0,0.05,9,0)" xlink:href="#ab"/><use transform="matrix(0.05,0,0,0.05,19,0)" xlink:href="#aj"/><use transform="matrix(0.05,0,0,0.05,22.95,0)" xlink:href="#aj"/><use transform="matrix(0.05,0,0,0.05,26.899999999999995,0)" xlink:href="#ae"/><use transform="matrix(0.05,0,0,0.05,30.849999999999994,0)" xlink:href="#as"/><use transform="matrix(0.05,0,0,0.05,40.849999999999994,0)" xlink:href="#Z"/><use transform="matrix(0.05,0,0,0.05,50.849999999999994,0)" xlink:href="#as"/></g><g id="y"><use transform="matrix(0.05,0,0,0.05,0,0)" xlink:href="#ag"/><use transform="matrix(0.05,0,0,0.05,10.5,0)" xlink:href="#ah"/><use transform="matrix(0.05,0,0,0.05,20.5,0)" xlink:href="#ap"/><use transform="matrix(0.05,0,0,0.05,30.5,0)" xlink:href="#as"/><use transform="matrix(0.05,0,0,0.05,40.5,0)" xlink:href="#X"/><use transform="matrix(0.05,0,0,0.05,50.5,0)" xlink:href="#ad"/><use transform="matrix(0.05,0,0,0.05,55.5,0)" xlink:href="#Z"/><use transform="matrix(0.05,0,0,0.05,65.5,0)" xlink:href="#al"/><use transform="matrix(0.05,0,0,0.05,71.45,0)" xlink:href="#am"/></g><g id="z"><use transform="matrix(0.05,0,0,0.05,0,0)" xlink:href="#Z"/><use transform="matrix(0.05,0,0,0.05,10,0)" xlink:href="#X"/><use transform="matrix(0.05,0,0,0.05,20,0)" xlink:href="#ad"/><use transform="matrix(0.05,0,0,0.05,25,0)" xlink:href="#al"/><use transform="matrix(0.05,0,0,0.05,30.950000000000003,0)" xlink:href="#am"/></g><path fill="#333" d="M24-231v-30h32v30H24zM-9 49c24 4 33-6 33-30v-209h32V24c2 40-23 58-65 49V49" id="aC"/><g id="A"><use transform="matrix(0.05,0,0,0.05,0,0)" xlink:href="#X"/><use transform="matrix(0.05,0,0,0.05,10,0)" xlink:href="#as"/><use transform="matrix(0.05,0,0,0.05,20,0)" xlink:href="#aC"/><use transform="matrix(0.05,0,0,0.05,23.95,0)" xlink:href="#ah"/><use transform="matrix(0.05,0,0,0.05,33.95,0)" xlink:href="#an"/><use transform="matrix(0.05,0,0,0.05,42.95,0)" xlink:href="#ad"/><use transform="matrix(0.05,0,0,0.05,47.95,0)" xlink:href="#aa"/><use transform="matrix(0.05,0,0,0.05,60.900000000000006,0)" xlink:href="#ab"/><use transform="matrix(0.05,0,0,0.05,70.9,0)" xlink:href="#ab"/><use transform="matrix(0.05,0,0,0.05,80.9,0)" xlink:href="#af"/><use transform="matrix(0.05,0,0,0.05,86.85000000000001,0)" xlink:href="#as"/><use transform="matrix(0.05,0,0,0.05,96.85000000000001,0)" xlink:href="#ae"/><use transform="matrix(0.05,0,0,0.05,100.80000000000001,0)" xlink:href="#ac"/><use transform="matrix(0.05,0,0,0.05,110.80000000000001,0)" xlink:href="#X"/><use transform="matrix(0.05,0,0,0.05,120.80000000000001,0)" xlink:href="#ad"/><use transform="matrix(0.05,0,0,0.05,125.80000000000001,0)" xlink:href="#Z"/><use transform="matrix(0.05,0,0,0.05,135.8,0)" xlink:href="#an"/><use transform="matrix(0.05,0,0,0.05,144.8,0)" xlink:href="#al"/><use transform="matrix(0.05,0,0,0.05,150.75,0)" xlink:href="#am"/></g><g id="B"><use transform="matrix(0.05,0,0,0.05,0,0)" xlink:href="#an"/><use transform="matrix(0.05,0,0,0.05,9,0)" xlink:href="#Z"/><use transform="matrix(0.05,0,0,0.05,19,0)" xlink:href="#ad"/><use transform="matrix(0.05,0,0,0.05,24,0)" xlink:href="#au"/><use transform="matrix(0.05,0,0,0.05,38,0)" xlink:href="#af"/><use transform="matrix(0.05,0,0,0.05,43.95,0)" xlink:href="#ae"/><use transform="matrix(0.05,0,0,0.05,47.900000000000006,0)" xlink:href="#Z"/><use transform="matrix(0.05,0,0,0.05,57.900000000000006,0)" xlink:href="#ac"/><use transform="matrix(0.05,0,0,0.05,67.9,0)" xlink:href="#ad"/><use transform="matrix(0.05,0,0,0.05,72.9,0)" xlink:href="#X"/><use transform="matrix(0.05,0,0,0.05,82.9,0)" xlink:href="#ad"/><use transform="matrix(0.05,0,0,0.05,87.9,0)" xlink:href="#ae"/><use transform="matrix(0.05,0,0,0.05,91.85000000000001,0)" xlink:href="#ab"/><use transform="matrix(0.05,0,0,0.05,101.85000000000001,0)" xlink:href="#ac"/><use transform="matrix(0.05,0,0,0.05,111.85000000000001,0)" xlink:href="#al"/><use transform="matrix(0.05,0,0,0.05,117.80000000000001,0)" xlink:href="#am"/></g><path fill="#333" d="M106-169C34-169 62-67 57 0H25v-261h32l-1 103c12-21 28-36 61-36 89 0 53 116 60 194h-32v-121c2-32-8-49-39-48" id="aD"/><path fill="#333" d="M30-248c118-7 216 8 213 122C240-48 200 0 122 0H30v-248zM63-27c89 8 146-16 146-99s-60-101-146-95v194" id="aE"/><g id="C"><use transform="matrix(0.05,0,0,0.05,0,0)" xlink:href="#aq"/><use transform="matrix(0.05,0,0,0.05,9,0)" xlink:href="#aD"/><use transform="matrix(0.05,0,0,0.05,19,0)" xlink:href="#X"/><use transform="matrix(0.05,0,0,0.05,29,0)" xlink:href="#ac"/><use transform="matrix(0.05,0,0,0.05,39,0)" xlink:href="#ai"/><use transform="matrix(0.05,0,0,0.05,49,0)" xlink:href="#Z"/><use transform="matrix(0.05,0,0,0.05,59,0)" xlink:href="#aE"/><use transform="matrix(0.05,0,0,0.05,71.95,0)" xlink:href="#ae"/><use transform="matrix(0.05,0,0,0.05,75.9,0)" xlink:href="#af"/><use transform="matrix(0.05,0,0,0.05,81.85000000000001,0)" xlink:href="#Z"/><use transform="matrix(0.05,0,0,0.05,91.85000000000001,0)" xlink:href="#aq"/><use transform="matrix(0.05,0,0,0.05,100.85000000000001,0)" xlink:href="#ad"/><use transform="matrix(0.05,0,0,0.05,105.85000000000001,0)" xlink:href="#ae"/><use transform="matrix(0.05,0,0,0.05,109.80000000000001,0)" xlink:href="#ab"/><use transform="matrix(0.05,0,0,0.05,119.80000000000001,0)" xlink:href="#ac"/><use transform="matrix(0.05,0,0,0.05,129.8,0)" xlink:href="#al"/><use transform="matrix(0.05,0,0,0.05,135.75,0)" xlink:href="#am"/></g><g id="D"><use transform="matrix(0.05,0,0,0.05,0,0)" xlink:href="#Y"/><use transform="matrix(0.05,0,0,0.05,14.950000000000001,0)" xlink:href="#ab"/><use transform="matrix(0.05,0,0,0.05,24.950000000000003,0)" xlink:href="#av"/><use transform="matrix(0.05,0,0,0.05,33.95,0)" xlink:href="#Z"/><use transform="matrix(0.05,0,0,0.05,43.95,0)" xlink:href="#al"/><use transform="matrix(0.05,0,0,0.05,49.900000000000006,0)" xlink:href="#am"/></g><g id="E"><use transform="matrix(0.05,0,0,0.05,0,0)" xlink:href="#aA"/><use transform="matrix(0.05,0,0,0.05,10.3,0)" xlink:href="#ae"/><use transform="matrix(0.05,0,0,0.05,14.25,0)" xlink:href="#aj"/><use transform="matrix(0.05,0,0,0.05,18.2,0)" xlink:href="#Z"/></g><g id="F"><use transform="matrix(0.05,0,0,0.05,0,0)" xlink:href="#aq"/><use transform="matrix(0.05,0,0,0.05,9,0)" xlink:href="#ab"/><use transform="matrix(0.05,0,0,0.05,19,0)" xlink:href="#ac"/><use transform="matrix(0.05,0,0,0.05,29,0)" xlink:href="#ad"/><use transform="matrix(0.05,0,0,0.05,34,0)" xlink:href="#Z"/><use transform="matrix(0.05,0,0,0.05,44,0)" xlink:href="#ac"/><use transform="matrix(0.05,0,0,0.05,54,0)" xlink:href="#ad"/></g><path fill="#333" d="M30-248c87 1 191-15 191 75 0 78-77 80-158 76V0H30v-248zm33 125c57 0 124 11 124-50 0-59-68-47-124-48v98" id="aF"/><g id="G"><use transform="matrix(0.05,0,0,0.05,0,0)" xlink:href="#ae"/><use transform="matrix(0.05,0,0,0.05,3.95,0)" xlink:href="#an"/><use transform="matrix(0.05,0,0,0.05,12.949999999999998,0)" xlink:href="#aF"/><use transform="matrix(0.05,0,0,0.05,24.95,0)" xlink:href="#aj"/><use transform="matrix(0.05,0,0,0.05,28.899999999999995,0)" xlink:href="#X"/><use transform="matrix(0.05,0,0,0.05,38.9,0)" xlink:href="#ay"/><use transform="matrix(0.05,0,0,0.05,47.9,0)" xlink:href="#Z"/><use transform="matrix(0.05,0,0,0.05,57.900000000000006,0)" xlink:href="#af"/></g><g id="H"><use transform="matrix(0.05,0,0,0.05,0,0)" xlink:href="#aD"/><use transform="matrix(0.05,0,0,0.05,10,0)" xlink:href="#Z"/><use transform="matrix(0.05,0,0,0.05,20,0)" xlink:href="#X"/><use transform="matrix(0.05,0,0,0.05,30,0)" xlink:href="#as"/></g><g id="I"><use transform="matrix(0.05,0,0,0.05,0,0)" xlink:href="#ad"/><use transform="matrix(0.05,0,0,0.05,5,0)" xlink:href="#X"/><use transform="matrix(0.05,0,0,0.05,15,0)" xlink:href="#ae"/><use transform="matrix(0.05,0,0,0.05,18.95,0)" xlink:href="#aj"/></g><g id="J"><use transform="matrix(0.05,0,0,0.05,0,0)" xlink:href="#ag"/><use transform="matrix(0.05,0,0,0.05,10.5,0)" xlink:href="#ab"/><use transform="matrix(0.05,0,0,0.05,20.5,0)" xlink:href="#af"/><use transform="matrix(0.05,0,0,0.05,26.450000000000003,0)" xlink:href="#ae"/><use transform="matrix(0.05,0,0,0.05,30.399999999999995,0)" xlink:href="#Z"/><use transform="matrix(0.05,0,0,0.05,40.4,0)" xlink:href="#ac"/><use transform="matrix(0.05,0,0,0.05,50.4,0)" xlink:href="#ad"/><use transform="matrix(0.05,0,0,0.05,55.400000000000006,0)" xlink:href="#X"/><use transform="matrix(0.05,0,0,0.05,65.4,0)" xlink:href="#ad"/><use transform="matrix(0.05,0,0,0.05,70.4,0)" xlink:href="#ae"/><use transform="matrix(0.05,0,0,0.05,74.35000000000001,0)" xlink:href="#ab"/><use transform="matrix(0.05,0,0,0.05,84.35000000000001,0)" xlink:href="#ac"/></g><path fill="#333" d="M141 0L90-78 38 0H4l68-98-65-92h35l48 74 47-74h35l-64 92 68 98h-35" id="aG"/><g id="K"><use transform="matrix(0.05,0,0,0.05,0,0)" xlink:href="#ag"/><use transform="matrix(0.05,0,0,0.05,10.5,0)" xlink:href="#ae"/><use transform="matrix(0.05,0,0,0.05,14.449999999999998,0)" xlink:href="#ac"/><use transform="matrix(0.05,0,0,0.05,24.45,0)" xlink:href="#as"/><use transform="matrix(0.05,0,0,0.05,34.45,0)" xlink:href="#Z"/><use transform="matrix(0.05,0,0,0.05,44.45,0)" xlink:href="#aG"/></g><g id="L"><use transform="matrix(0.05,0,0,0.05,0,0)" xlink:href="#ag"/><use transform="matrix(0.05,0,0,0.05,10.5,0)" xlink:href="#ah"/><use transform="matrix(0.05,0,0,0.05,20.5,0)" xlink:href="#ap"/><use transform="matrix(0.05,0,0,0.05,30.5,0)" xlink:href="#as"/><use transform="matrix(0.05,0,0,0.05,40.5,0)" xlink:href="#X"/><use transform="matrix(0.05,0,0,0.05,50.5,0)" xlink:href="#ad"/><use transform="matrix(0.05,0,0,0.05,55.5,0)" xlink:href="#Z"/></g><path fill="#333" d="M190 0L58-211 59 0H30v-248h39L202-35l-2-213h31V0h-41" id="aH"/><g id="M"><use transform="matrix(0.05,0,0,0.05,0,0)" xlink:href="#ai"/><use transform="matrix(0.05,0,0,0.05,10,0)" xlink:href="#Z"/><use transform="matrix(0.05,0,0,0.05,20,0)" xlink:href="#ad"/><use transform="matrix(0.05,0,0,0.05,25,0)" xlink:href="#aa"/><use transform="matrix(0.05,0,0,0.05,37.95,0)" xlink:href="#aj"/><use transform="matrix(0.05,0,0,0.05,41.900000000000006,0)" xlink:href="#X"/><use transform="matrix(0.05,0,0,0.05,51.900000000000006,0)" xlink:href="#an"/><use transform="matrix(0.05,0,0,0.05,60.900000000000006,0)" xlink:href="#an"/><use transform="matrix(0.05,0,0,0.05,69.9,0)" xlink:href="#aH"/><use transform="matrix(0.05,0,0,0.05,82.85000000000001,0)" xlink:href="#X"/><use transform="matrix(0.05,0,0,0.05,92.85000000000001,0)" xlink:href="#Y"/><use transform="matrix(0.05,0,0,0.05,107.80000000000001,0)" xlink:href="#Z"/><use transform="matrix(0.05,0,0,0.05,117.80000000000001,0)" xlink:href="#al"/><use transform="matrix(0.05,0,0,0.05,123.75,0)" xlink:href="#am"/></g><g id="N"><use transform="matrix(0.05,0,0,0.05,0,0)" xlink:href="#ai"/><use transform="matrix(0.05,0,0,0.05,10,0)" xlink:href="#Z"/><use transform="matrix(0.05,0,0,0.05,20,0)" xlink:href="#ac"/><use transform="matrix(0.05,0,0,0.05,30,0)" xlink:href="#Z"/><use transform="matrix(0.05,0,0,0.05,40,0)" xlink:href="#af"/><use transform="matrix(0.05,0,0,0.05,45.95,0)" xlink:href="#X"/><use transform="matrix(0.05,0,0,0.05,55.95,0)" xlink:href="#ad"/><use transform="matrix(0.05,0,0,0.05,60.95,0)" xlink:href="#Z"/><use transform="matrix(0.05,0,0,0.05,70.95,0)" xlink:href="#al"/><use transform="matrix(0.05,0,0,0.05,76.9,0)" xlink:href="#am"/></g><g id="O"><use transform="matrix(0.05,0,0,0.05,0,0)" xlink:href="#at"/><use transform="matrix(0.05,0,0,0.05,12,0)" xlink:href="#Z"/><use transform="matrix(0.05,0,0,0.05,22,0)" xlink:href="#aj"/><use transform="matrix(0.05,0,0,0.05,25.950000000000003,0)" xlink:href="#aj"/><use transform="matrix(0.05,0,0,0.05,29.899999999999995,0)" xlink:href="#ay"/></g><g id="P"><use transform="matrix(0.05,0,0,0.05,0,0)" xlink:href="#an"/><use transform="matrix(0.05,0,0,0.05,9,0)" xlink:href="#ad"/><use transform="matrix(0.05,0,0,0.05,14,0)" xlink:href="#ab"/><use transform="matrix(0.05,0,0,0.05,24,0)" xlink:href="#Y"/><use transform="matrix(0.05,0,0,0.05,38.95,0)" xlink:href="#X"/><use transform="matrix(0.05,0,0,0.05,48.95,0)" xlink:href="#aq"/><use transform="matrix(0.05,0,0,0.05,57.95,0)" xlink:href="#aD"/></g><g id="Q"><use transform="matrix(0.05,0,0,0.05,0,0)" xlink:href="#ag"/><use transform="matrix(0.05,0,0,0.05,10.5,0)" xlink:href="#Y"/><use transform="matrix(0.05,0,0,0.05,25.450000000000003,0)" xlink:href="#ab"/><use transform="matrix(0.05,0,0,0.05,35.45,0)" xlink:href="#ah"/><use transform="matrix(0.05,0,0,0.05,45.45,0)" xlink:href="#ad"/><use transform="matrix(0.05,0,0,0.05,50.45,0)" xlink:href="#aD"/></g><g id="R"><use transform="matrix(0.05,0,0,0.05,0,0)" xlink:href="#an"/><use transform="matrix(0.05,0,0,0.05,9,0)" xlink:href="#aq"/><use transform="matrix(0.05,0,0,0.05,18,0)" xlink:href="#ab"/><use transform="matrix(0.05,0,0,0.05,28,0)" xlink:href="#af"/><use transform="matrix(0.05,0,0,0.05,33.95,0)" xlink:href="#Z"/></g><g id="S"><use transform="matrix(0.05,0,0,0.05,0,0)" xlink:href="#ah"/><use transform="matrix(0.05,0,0,0.05,10,0)" xlink:href="#ap"/><use transform="matrix(0.05,0,0,0.05,20,0)" xlink:href="#as"/><use transform="matrix(0.05,0,0,0.05,30,0)" xlink:href="#X"/><use transform="matrix(0.05,0,0,0.05,40,0)" xlink:href="#ad"/><use transform="matrix(0.05,0,0,0.05,45,0)" xlink:href="#Z"/><use transform="matrix(0.05,0,0,0.05,55,0)" xlink:href="#al"/><use transform="matrix(0.05,0,0,0.05,60.95,0)" xlink:href="#am"/></g><g id="T"><use transform="matrix(0.05,0,0,0.05,0,0)" xlink:href="#an"/><use transform="matrix(0.05,0,0,0.05,9,0)" xlink:href="#Z"/><use transform="matrix(0.05,0,0,0.05,19,0)" xlink:href="#X"/><use transform="matrix(0.05,0,0,0.05,29,0)" xlink:href="#af"/><use transform="matrix(0.05,0,0,0.05,34.95,0)" xlink:href="#aq"/><use transform="matrix(0.05,0,0,0.05,43.95,0)" xlink:href="#aD"/><use transform="matrix(0.05,0,0,0.05,53.95,0)" xlink:href="#at"/><use transform="matrix(0.05,0,0,0.05,65.95,0)" xlink:href="#Z"/><use transform="matrix(0.05,0,0,0.05,75.95,0)" xlink:href="#aj"/><use transform="matrix(0.05,0,0,0.05,79.9,0)" xlink:href="#aj"/><use transform="matrix(0.05,0,0,0.05,83.85000000000001,0)" xlink:href="#ay"/><use transform="matrix(0.05,0,0,0.05,92.85000000000001,0)" xlink:href="#al"/><use transform="matrix(0.05,0,0,0.05,98.80000000000001,0)" xlink:href="#am"/></g><g id="U"><use transform="matrix(0.05,0,0,0.05,0,0)" xlink:href="#aq"/><use transform="matrix(0.05,0,0,0.05,9,0)" xlink:href="#aD"/><use transform="matrix(0.05,0,0,0.05,19,0)" xlink:href="#Z"/><use transform="matrix(0.05,0,0,0.05,29,0)" xlink:href="#aq"/><use transform="matrix(0.05,0,0,0.05,38,0)" xlink:href="#az"/><use transform="matrix(0.05,0,0,0.05,47,0)" xlink:href="#ar"/><use transform="matrix(0.05,0,0,0.05,63.599999999999994,0)" xlink:href="#ab"/><use transform="matrix(0.05,0,0,0.05,73.6,0)" xlink:href="#af"/><use transform="matrix(0.05,0,0,0.05,79.55,0)" xlink:href="#as"/><use transform="matrix(0.05,0,0,0.05,89.55,0)" xlink:href="#al"/><use transform="matrix(0.05,0,0,0.05,95.5,0)" xlink:href="#am"/></g><g id="V"><use transform="matrix(0.05,0,0,0.05,0,0)" xlink:href="#af"/><use transform="matrix(0.05,0,0,0.05,5.95,0)" xlink:href="#Z"/><use transform="matrix(0.05,0,0,0.05,15.949999999999998,0)" xlink:href="#Y"/><use transform="matrix(0.05,0,0,0.05,30.899999999999995,0)" xlink:href="#ab"/><use transform="matrix(0.05,0,0,0.05,40.9,0)" xlink:href="#av"/><use transform="matrix(0.05,0,0,0.05,49.9,0)" xlink:href="#Z"/><use transform="matrix(0.05,0,0,0.05,59.900000000000006,0)" xlink:href="#ar"/><use transform="matrix(0.05,0,0,0.05,76.5,0)" xlink:href="#ab"/><use transform="matrix(0.05,0,0,0.05,86.5,0)" xlink:href="#af"/><use transform="matrix(0.05,0,0,0.05,92.45,0)" xlink:href="#as"/><use transform="matrix(0.05,0,0,0.05,102.45,0)" xlink:href="#al"/><use transform="matrix(0.05,0,0,0.05,108.4,0)" xlink:href="#am"/></g></defs></g></svg>