<?xml version="1.0" encoding="UTF-8" standalone="no"?>
<!-- Created with Inkscape (http://www.inkscape.org/) -->

<svg
   width="100%"
   height="100%"
   viewBox="0 0 183.12621 183.12621"
   version="1.1"
   id="svg5"
   inkscape:version="1.1 (c68e22c387, 2021-05-23)"
   sodipodi:docname="snekTurnClockwise.svg"
   xmlns:inkscape="http://www.inkscape.org/namespaces/inkscape"
   xmlns:sodipodi="http://sodipodi.sourceforge.net/DTD/sodipodi-0.dtd"
   xmlns:xlink="http://www.w3.org/1999/xlink"
   xmlns="http://www.w3.org/2000/svg"
   xmlns:svg="http://www.w3.org/2000/svg">
  <sodipodi:namedview
     id="namedview7"
     pagecolor="#505050"
     bordercolor="#eeeeee"
     borderopacity="1"
     inkscape:pageshadow="0"
     inkscape:pageopacity="0"
     inkscape:pagecheckerboard="0"
     inkscape:document-units="mm"
     showgrid="true"
     inkscape:zoom="2.096401"
     inkscape:cx="161.4672"
     inkscape:cy="74.651749"
     inkscape:window-width="1920"
     inkscape:window-height="1017"
     inkscape:window-x="1912"
     inkscape:window-y="-8"
     inkscape:window-maximized="1"
     inkscape:current-layer="layer1">
    <inkscape:grid
       type="xygrid"
       id="grid88"
       spacingx="2.2886458"
       spacingy="2.2886458"
       empspacing="10"
       empcolor="#ff3fff"
       empopacity="0.25098039" />
  </sodipodi:namedview>
  <defs
     id="defs2">
    <linearGradient
       id="linearGradient3406"
       inkscape:swatch="solid">
      <stop
         style="stop-color:#000000;stop-opacity:1;"
         offset="0"
         id="stop3404" />
    </linearGradient>
    <linearGradient
       id="linearGradient1438"
       inkscape:swatch="solid">
      <stop
         style="stop-color:#000000;stop-opacity:1;"
         offset="0"
         id="stop1436" />
    </linearGradient>
    <linearGradient
       id="linearGradient1414"
       inkscape:swatch="solid">
      <stop
         style="stop-color:#000000;stop-opacity:1;"
         offset="0"
         id="stop1412" />
    </linearGradient>
    <linearGradient
       inkscape:collect="always"
       xlink:href="#linearGradient3406"
       id="linearGradient3408"
       x1="31.627403"
       y1="170.43646"
       x2="215.21906"
       y2="170.43646"
       gradientUnits="userSpaceOnUse" />
    <linearGradient
       inkscape:collect="always"
       xlink:href="#linearGradient3406"
       id="linearGradient847"
       gradientUnits="userSpaceOnUse"
       x1="31.627403"
       y1="170.43646"
       x2="215.21906"
       y2="170.43646" />
    <linearGradient
       inkscape:collect="always"
       xlink:href="#linearGradient3406"
       id="linearGradient849"
       gradientUnits="userSpaceOnUse"
       x1="31.627403"
       y1="170.43646"
       x2="215.21906"
       y2="170.43646" />
    <linearGradient
       inkscape:collect="always"
       xlink:href="#linearGradient3406"
       id="linearGradient851"
       gradientUnits="userSpaceOnUse"
       x1="31.627403"
       y1="170.43646"
       x2="215.21906"
       y2="170.43646" />
    <linearGradient
       inkscape:collect="always"
       xlink:href="#linearGradient3406"
       id="linearGradient853"
       gradientUnits="userSpaceOnUse"
       x1="31.627403"
       y1="170.43646"
       x2="215.21906"
       y2="170.43646" />
    <linearGradient
       inkscape:collect="always"
       xlink:href="#linearGradient3406"
       id="linearGradient855"
       gradientUnits="userSpaceOnUse"
       x1="31.627403"
       y1="170.43646"
       x2="215.21906"
       y2="170.43646" />
    <linearGradient
       inkscape:collect="always"
       xlink:href="#linearGradient3406"
       id="linearGradient857"
       gradientUnits="userSpaceOnUse"
       x1="31.627403"
       y1="170.43646"
       x2="215.21906"
       y2="170.43646" />
    <linearGradient
       inkscape:collect="always"
       xlink:href="#linearGradient3406"
       id="linearGradient859"
       gradientUnits="userSpaceOnUse"
       x1="31.627403"
       y1="170.43646"
       x2="215.21906"
       y2="170.43646" />
    <linearGradient
       inkscape:collect="always"
       xlink:href="#linearGradient3406"
       id="linearGradient861"
       gradientUnits="userSpaceOnUse"
       x1="31.627403"
       y1="170.43646"
       x2="215.21906"
       y2="170.43646" />
    <linearGradient
       inkscape:collect="always"
       xlink:href="#linearGradient3406"
       id="linearGradient863"
       gradientUnits="userSpaceOnUse"
       x1="31.627403"
       y1="170.43646"
       x2="215.21906"
       y2="170.43646" />
    <linearGradient
       inkscape:collect="always"
       xlink:href="#linearGradient3406"
       id="linearGradient865"
       gradientUnits="userSpaceOnUse"
       x1="31.627403"
       y1="170.43646"
       x2="215.21906"
       y2="170.43646" />
    <linearGradient
       inkscape:collect="always"
       xlink:href="#linearGradient3406"
       id="linearGradient867"
       gradientUnits="userSpaceOnUse"
       x1="31.627403"
       y1="170.43646"
       x2="215.21906"
       y2="170.43646" />
    <linearGradient
       inkscape:collect="always"
       xlink:href="#linearGradient3406"
       id="linearGradient869"
       gradientUnits="userSpaceOnUse"
       x1="31.627403"
       y1="170.43646"
       x2="215.21906"
       y2="170.43646" />
    <linearGradient
       inkscape:collect="always"
       xlink:href="#linearGradient3406"
       id="linearGradient871"
       gradientUnits="userSpaceOnUse"
       x1="31.627403"
       y1="170.43646"
       x2="215.21906"
       y2="170.43646" />
  </defs>
  <g
     inkscape:label="Layer 1"
     inkscape:groupmode="layer"
     id="layer1"
     transform="translate(-32.127403,-78.890625)">
    <g
       id="g563"
       style="stroke:url(#linearGradient3408);stroke-width:4.5;stroke-miterlimit:4;stroke-dasharray:none"
       transform="matrix(0,-1,-1,0,294.07106,291.82103)">
      <path
         style="fill:none;stroke:url(#linearGradient847);stroke-width:4.5;stroke-miterlimit:4;stroke-dasharray:none"
         d="m 212.9304,81.140639 c 0,0 -20.59779,-2.250014 -20.59779,20.636441 0,22.88646 18.30915,22.84783 18.30915,22.84783"
         id="path90"
         sodipodi:nodetypes="csc" />
      <path
         style="fill:none;stroke:url(#linearGradient849);stroke-width:4.5;stroke-miterlimit:4;stroke-dasharray:none"
         d="m 187.75532,193.32291 c 0,0 -18.30917,0 -18.30917,-22.88646 0,-22.88645 22.88646,-22.88645 22.88646,-22.88645 0,0 -22.88646,0 -22.88646,-22.88646 0,-22.88646 22.88646,-22.88646 22.88646,-22.88646 0,0 -22.88646,0 -22.88646,-22.886455"
         id="path213"
         sodipodi:nodetypes="cscscc" />
      <path
         style="fill:none;stroke:url(#linearGradient851);stroke-width:4.5;stroke-miterlimit:4;stroke-dasharray:none"
         d="m 169.44615,78.890625 c 0,0 -22.88646,0 -22.88646,22.886455 0,22.88646 22.88646,22.88646 22.88646,22.88646 0,0 -22.88646,0 -22.88646,22.88646 0,22.88645 22.88646,22.88645 22.88646,22.88645 0,0 -22.88646,0 -22.88646,22.88646 0,22.88646 22.88646,20.59782 22.88646,20.59782"
         id="path328"
         sodipodi:nodetypes="cscscsc" />
      <path
         style="fill:none;stroke:url(#linearGradient853);stroke-width:4.5;stroke-miterlimit:4;stroke-dasharray:none"
         d="m 123.67323,216.20937 c 0,0 0,16.02052 22.88646,16.02052"
         id="path445"
         sodipodi:nodetypes="cc" />
      <path
         style="fill:none;stroke:url(#linearGradient855);stroke-width:4.5;stroke-miterlimit:4;stroke-dasharray:none"
         d="m 123.67323,216.20937 c 0,0 0,-22.88646 22.88646,-22.88646"
         id="path447" />
      <path
         style="fill:none;stroke:url(#linearGradient857);stroke-width:4.5;stroke-miterlimit:4;stroke-dasharray:none"
         d="m 146.55969,193.32291 c 0,0 -22.88646,0 -22.88646,-22.88646 0,-22.88645 22.88646,-22.88645 22.88646,-22.88645 0,0 -22.88646,0 -22.88646,-22.88646 0,-22.88646 22.88646,-22.88646 22.88646,-22.88646 0,0 -22.88646,0 -22.88646,-22.886455"
         id="path449" />
      <path
         style="fill:none;stroke:url(#linearGradient859);stroke-width:4.5;stroke-miterlimit:4;stroke-dasharray:none"
         d="m 123.67323,216.20937 c 0,0 -22.88645,0 -22.88645,-22.88646 0,-22.88646 22.88645,-22.88646 22.88645,-22.88646 0,0 -22.88645,0 -22.88645,-22.88645 0,-22.88646 22.88645,-22.88646 22.88645,-22.88646 0,0 -22.88645,0 -22.88645,-22.88646 0,-22.886455 22.88645,-22.886455 22.88645,-22.886455"
         id="path451"
         sodipodi:nodetypes="cscscsc" />
      <path
         style="fill:none;stroke:url(#linearGradient861);stroke-width:4.5;stroke-miterlimit:4;stroke-dasharray:none"
         d="m 77.900319,78.890625 c 0,0 0,22.886455 22.886461,22.886455"
         id="path453" />
      <path
         style="fill:none;stroke:url(#linearGradient863);stroke-width:4.5;stroke-miterlimit:4;stroke-dasharray:none"
         d="m 77.900319,124.66354 c 0,0 0,-22.88646 22.886461,-22.88646"
         id="path455" />
      <path
         style="fill:none;stroke:url(#linearGradient865);stroke-width:4.5;stroke-miterlimit:4;stroke-dasharray:none"
         d="m 77.900319,257.405 c 0,0 0,-18.30917 22.886461,-18.30917"
         id="path457"
         sodipodi:nodetypes="cc" />
      <path
         style="fill:none;stroke:url(#linearGradient867);stroke-width:4.5;stroke-miterlimit:4;stroke-dasharray:none"
         d="m 100.78678,239.09583 c 0,0 -22.886461,0 -22.886461,-22.88646 0,-22.88646 22.886461,-22.88646 22.886461,-22.88646 0,0 -22.886461,0 -22.886461,-22.88646 0,-22.88645 22.886461,-22.88645 22.886461,-22.88645 0,0 -22.886461,0 -22.886461,-22.88646"
         id="path459" />
      <path
         style="fill:none;stroke:url(#linearGradient869);stroke-width:4.5;stroke-miterlimit:4;stroke-dasharray:none"
         d="m 77.900319,78.890625 c 0,0 -22.886458,0 -22.886458,22.886455 0,22.88646 22.886458,22.88646 22.886458,22.88646 0,0 -22.886458,0 -22.886458,22.88646 0,22.88645 22.886458,22.88645 22.886458,22.88645 0,0 -22.886458,0 -22.886458,22.88646 0,22.88646 22.886458,22.88646 22.886458,22.88646 0,0 -22.886458,0 -22.886458,22.88646 0,22.88646 13.731875,18.30917 13.731875,18.30917"
         id="path461"
         sodipodi:nodetypes="cscscscsc" />
      <path
         style="fill:none;stroke:url(#linearGradient871);stroke-width:4.5;stroke-miterlimit:4;stroke-dasharray:none"
         d="m 32.127403,261.98229 c 0,-22.88646 22.886458,-22.88646 22.886458,-22.88646 0,0 -22.886458,0 -22.886458,-22.88646 0,-22.88645 22.886458,-22.88645 22.886458,-22.88645 0,0 -22.886458,0 -22.886458,-22.88646 0,-22.88646 22.886458,-22.88646 22.886458,-22.88646 0,0 -22.886458,0 -22.886458,-22.88646 0,-22.88646 22.886458,-22.88646 22.886458,-22.88646 0,0 -22.886458,0 -22.886458,-22.886455"
         id="path463" />
    </g>
    <path
       style="fill:none;stroke:#000000;stroke-width:4.5;stroke-linecap:butt;stroke-linejoin:miter;stroke-miterlimit:4;stroke-dasharray:none;stroke-opacity:1"
       d="M 215.21907,81.179271 C 210.20619,82.941781 34.394729,53.723001 34.416049,259.69364"
       id="path1180"
       sodipodi:nodetypes="cc" />
    <path
       style="fill:none;stroke:#000000;stroke-width:4.5;stroke-linecap:butt;stroke-linejoin:miter;stroke-miterlimit:4;stroke-dasharray:none;stroke-opacity:1"
       d="m 75.611672,168.1478 c 0,0 0,22.88645 -34.32968,22.88645"
       id="path3961" />
    <path
       style="fill:none;stroke:#000000;stroke-width:4.5;stroke-linecap:butt;stroke-linejoin:miter;stroke-miterlimit:4;stroke-dasharray:none;stroke-opacity:1"
       d="m 167.15751,81.179253 c 0,0 0,18.30917 -22.88647,18.30917"
       id="path3963" />
    <path
       style="fill:none;stroke:#000000;stroke-width:4.5;stroke-linecap:butt;stroke-linejoin:miter;stroke-miterlimit:4;stroke-dasharray:none;stroke-opacity:1"
       d="m 144.27104,99.488423 c 0,0 -11.91458,0 -18.55046,-8.59664"
       id="path3965"
       sodipodi:nodetypes="cc" />
  </g>
</svg>
