<?xml version="1.0" encoding="UTF-8" standalone="no"?>
<!-- Created with Inkscape (http://www.inkscape.org/) -->

<svg
   width="100%"
   height="100%"
   viewBox="0 0 183.12621 183.12621"
   version="1.1"
   id="svg5"
   inkscape:version="1.1 (c68e22c387, 2021-05-23)"
   sodipodi:docname="snekCurveUp.svg"
   xmlns:inkscape="http://www.inkscape.org/namespaces/inkscape"
   xmlns:sodipodi="http://sodipodi.sourceforge.net/DTD/sodipodi-0.dtd"
   xmlns:xlink="http://www.w3.org/1999/xlink"
   xmlns="http://www.w3.org/2000/svg"
   xmlns:svg="http://www.w3.org/2000/svg">
  <sodipodi:namedview
     id="namedview7"
     pagecolor="#505050"
     bordercolor="#eeeeee"
     borderopacity="1"
     inkscape:pageshadow="0"
     inkscape:pageopacity="0"
     inkscape:pagecheckerboard="0"
     inkscape:document-units="mm"
     showgrid="true"
     inkscape:zoom="2.9647587"
     inkscape:cx="64.929399"
     inkscape:cy="105.06757"
     inkscape:window-width="1920"
     inkscape:window-height="1017"
     inkscape:window-x="-8"
     inkscape:window-y="-8"
     inkscape:window-maximized="1"
     inkscape:current-layer="layer1">
    <inkscape:grid
       type="xygrid"
       id="grid88"
       spacingx="2.2886458"
       spacingy="2.2886458"
       empspacing="10"
       empcolor="#ff3fff"
       empopacity="0.25098039" />
  </sodipodi:namedview>
  <defs
     id="defs2">
    <linearGradient
       id="linearGradient3406"
       inkscape:swatch="solid">
      <stop
         style="stop-color:#000000;stop-opacity:1;"
         offset="0"
         id="stop3404" />
    </linearGradient>
    <linearGradient
       id="linearGradient1438"
       inkscape:swatch="solid">
      <stop
         style="stop-color:#000000;stop-opacity:1;"
         offset="0"
         id="stop1436" />
    </linearGradient>
    <linearGradient
       id="linearGradient1414"
       inkscape:swatch="solid">
      <stop
         style="stop-color:#000000;stop-opacity:1;"
         offset="0"
         id="stop1412" />
    </linearGradient>
    <linearGradient
       inkscape:collect="always"
       xlink:href="#linearGradient3406"
       id="linearGradient3408"
       x1="31.627403"
       y1="170.43646"
       x2="215.21906"
       y2="170.43646"
       gradientUnits="userSpaceOnUse" />
  </defs>
  <g
     inkscape:label="Layer 1"
     inkscape:groupmode="layer"
     id="layer1"
     transform="translate(-32.127403,-78.890625)">
    <g
       id="g563"
       style="stroke:url(#linearGradient3408);stroke-width:4.5;stroke-miterlimit:4;stroke-dasharray:none">
      <path
         style="fill:none;stroke:url(#linearGradient3408);stroke-width:4.5;stroke-miterlimit:4;stroke-dasharray:none"
         d="m 215.21907,81.179271 c 0,0 -22.88646,-2.288646 -22.88646,20.597809 0,22.88646 20.59781,22.88646 20.59781,22.88646"
         id="path90"
         sodipodi:nodetypes="csc" />
      <path
         style="fill:none;stroke:url(#linearGradient3408);stroke-width:4.5;stroke-miterlimit:4;stroke-dasharray:none"
         d="m 187.75532,193.32291 c 0,0 -18.30917,0 -18.30917,-22.88646 0,-22.88645 22.88646,-22.88645 22.88646,-22.88645 0,0 -22.88646,0 -22.88646,-22.88646 0,-22.88646 22.88646,-22.88646 22.88646,-22.88646 0,0 -22.88646,0 -22.88646,-22.886455"
         id="path213"
         sodipodi:nodetypes="cscscc" />
      <path
         style="fill:none;stroke:url(#linearGradient3408);stroke-width:4.5;stroke-miterlimit:4;stroke-dasharray:none"
         d="m 169.44615,78.890625 c 0,0 -22.88646,0 -22.88646,22.886455 0,22.88646 22.88646,22.88646 22.88646,22.88646 0,0 -22.88646,0 -22.88646,22.88646 0,22.88645 22.88646,22.88645 22.88646,22.88645 0,0 -22.88646,0 -22.88646,22.88646 0,22.88646 22.88646,20.59782 22.88646,20.59782"
         id="path328"
         sodipodi:nodetypes="cscscsc" />
      <path
         style="fill:none;stroke:url(#linearGradient3408);stroke-width:4.5;stroke-miterlimit:4;stroke-dasharray:none"
         d="m 123.67323,216.20937 c 0,0 0,16.02052 22.88646,16.02052"
         id="path445"
         sodipodi:nodetypes="cc" />
      <path
         style="fill:none;stroke:url(#linearGradient3408);stroke-width:4.5;stroke-miterlimit:4;stroke-dasharray:none"
         d="m 123.67323,216.20937 c 0,0 0,-22.88646 22.88646,-22.88646"
         id="path447" />
      <path
         style="fill:none;stroke:url(#linearGradient3408);stroke-width:4.5;stroke-miterlimit:4;stroke-dasharray:none"
         d="m 146.55969,193.32291 c 0,0 -22.88646,0 -22.88646,-22.88646 0,-22.88645 22.88646,-22.88645 22.88646,-22.88645 0,0 -22.88646,0 -22.88646,-22.88646 0,-22.88646 22.88646,-22.88646 22.88646,-22.88646 0,0 -22.88646,0 -22.88646,-22.886455"
         id="path449" />
      <path
         style="fill:none;stroke:url(#linearGradient3408);stroke-width:4.5;stroke-miterlimit:4;stroke-dasharray:none"
         d="m 123.67323,216.20937 c 0,0 -22.88645,0 -22.88645,-22.88646 0,-22.88646 22.88645,-22.88646 22.88645,-22.88646 0,0 -22.88645,0 -22.88645,-22.88645 0,-22.88646 22.88645,-22.88646 22.88645,-22.88646 0,0 -22.88645,0 -22.88645,-22.88646 0,-22.886455 22.88645,-22.886455 22.88645,-22.886455"
         id="path451"
         sodipodi:nodetypes="cscscsc" />
      <path
         style="fill:none;stroke:url(#linearGradient3408);stroke-width:4.5;stroke-miterlimit:4;stroke-dasharray:none"
         d="m 77.900319,78.890625 c 0,0 0,22.886455 22.886461,22.886455"
         id="path453" />
      <path
         style="fill:none;stroke:url(#linearGradient3408);stroke-width:4.5;stroke-miterlimit:4;stroke-dasharray:none"
         d="m 77.900319,124.66354 c 0,0 0,-22.88646 22.886461,-22.88646"
         id="path455" />
      <path
         style="fill:none;stroke:url(#linearGradient3408);stroke-width:4.5;stroke-miterlimit:4;stroke-dasharray:none"
         d="m 77.900319,257.405 c 0,0 0,-18.30917 22.886461,-18.30917"
         id="path457"
         sodipodi:nodetypes="cc" />
      <path
         style="fill:none;stroke:url(#linearGradient3408);stroke-width:4.5;stroke-miterlimit:4;stroke-dasharray:none"
         d="m 100.78678,239.09583 c 0,0 -22.886461,0 -22.886461,-22.88646 0,-22.88646 22.886461,-22.88646 22.886461,-22.88646 0,0 -22.886461,0 -22.886461,-22.88646 0,-22.88645 22.886461,-22.88645 22.886461,-22.88645 0,0 -22.886461,0 -22.886461,-22.88646"
         id="path459" />
      <path
         style="fill:none;stroke:url(#linearGradient3408);stroke-width:4.5;stroke-miterlimit:4;stroke-dasharray:none"
         d="m 77.900319,78.890625 c 0,0 -22.886458,0 -22.886458,22.886455 0,22.88646 22.886458,22.88646 22.886458,22.88646 0,0 -22.886458,0 -22.886458,22.88646 0,22.88645 22.886458,22.88645 22.886458,22.88645 0,0 -22.886458,0 -22.886458,22.88646 0,22.88646 22.886458,22.88646 22.886458,22.88646 0,0 -22.886458,0 -22.886458,22.88646 0,22.88646 13.731875,18.30917 13.731875,18.30917"
         id="path461"
         sodipodi:nodetypes="cscscscsc" />
      <path
         style="fill:none;stroke:url(#linearGradient3408);stroke-width:4.5;stroke-miterlimit:4;stroke-dasharray:none"
         d="m 32.127403,261.98229 c 0,-22.88646 22.886458,-22.88646 22.886458,-22.88646 0,0 -22.886458,0 -22.886458,-22.88646 0,-22.88645 22.886458,-22.88645 22.886458,-22.88645 0,0 -22.886458,0 -22.886458,-22.88646 0,-22.88646 22.886458,-22.88646 22.886458,-22.88646 0,0 -22.886458,0 -22.886458,-22.88646 0,-22.88646 22.886458,-22.88646 22.886458,-22.88646 0,0 -22.886458,0 -22.886458,-22.886455"
         id="path463" />
    </g>
    <path
       style="fill:none;stroke:#000000;stroke-width:4.5;stroke-linecap:butt;stroke-linejoin:miter;stroke-miterlimit:4;stroke-dasharray:none;stroke-opacity:1"
       d="M 212.93042,78.890625 C 211.16791,83.903505 238.09803,259.71496 32.127403,259.69364"
       id="path1180"
       sodipodi:nodetypes="cc" />
    <path
       style="fill:none;stroke:#000000;stroke-width:4.50000011;stroke-linecap:butt;stroke-linejoin:miter;stroke-opacity:1;stroke-miterlimit:4;stroke-dasharray:none"
       d="m 123.67323,216.20936 c 0,0 -22.88646,0 -22.88646,34.32969"
       id="path3961" />
    <path
       style="fill:none;stroke:#000000;stroke-width:4.50000011;stroke-linecap:butt;stroke-linejoin:miter;stroke-opacity:1;stroke-miterlimit:4;stroke-dasharray:none"
       d="m 210.64177,124.66354 c 0,0 -18.30917,0 -18.30917,22.88646"
       id="path3963" />
    <path
       style="fill:none;stroke:#000000;stroke-width:4.5;stroke-linecap:butt;stroke-linejoin:miter;stroke-miterlimit:4;stroke-dasharray:none;stroke-opacity:1"
       d="m 192.3326,147.55 c 0,0 0,11.91458 8.59664,18.55046"
       id="path3965"
       sodipodi:nodetypes="cc" />
  </g>
</svg>
