<?xml version="1.0" encoding="UTF-8" standalone="no"?>
<!-- Created with Inkscape (http://www.inkscape.org/) -->

<svg
   width="100%"
   height="100%"
   viewBox="0 0 183.12621 183.12621"
   version="1.1"
   id="svg5"
   inkscape:version="1.1 (c68e22c387, 2021-05-23)"
   sodipodi:docname="snekVert.svg"
   xmlns:inkscape="http://www.inkscape.org/namespaces/inkscape"
   xmlns:sodipodi="http://sodipodi.sourceforge.net/DTD/sodipodi-0.dtd"
   xmlns:xlink="http://www.w3.org/1999/xlink"
   xmlns="http://www.w3.org/2000/svg"
   xmlns:svg="http://www.w3.org/2000/svg">
  <sodipodi:namedview
     id="namedview7"
     pagecolor="#505050"
     bordercolor="#eeeeee"
     borderopacity="1"
     inkscape:pageshadow="0"
     inkscape:pageopacity="0"
     inkscape:pagecheckerboard="0"
     inkscape:document-units="mm"
     showgrid="false"
     inkscape:zoom="2.0964009"
     inkscape:cx="253.05274"
     inkscape:cy="63.20356"
     inkscape:window-width="1920"
     inkscape:window-height="1017"
     inkscape:window-x="-8"
     inkscape:window-y="-8"
     inkscape:window-maximized="1"
     inkscape:current-layer="layer1">
    <inkscape:grid
       type="xygrid"
       id="grid88"
       spacingx="2.2886458"
       spacingy="2.2886458"
       empspacing="10"
       empcolor="#ff3fff"
       empopacity="0.25098039" />
  </sodipodi:namedview>
  <defs
     id="defs2">
    <linearGradient
       id="linearGradient3406"
       inkscape:swatch="solid">
      <stop
         style="stop-color:#000000;stop-opacity:1;"
         offset="0"
         id="stop3404" />
    </linearGradient>
    <linearGradient
       id="linearGradient1438"
       inkscape:swatch="solid">
      <stop
         style="stop-color:#000000;stop-opacity:1;"
         offset="0"
         id="stop1436" />
    </linearGradient>
    <linearGradient
       id="linearGradient1414"
       inkscape:swatch="solid">
      <stop
         style="stop-color:#000000;stop-opacity:1;"
         offset="0"
         id="stop1412" />
    </linearGradient>
    <linearGradient
       inkscape:collect="always"
       xlink:href="#linearGradient3406"
       id="linearGradient3408"
       x1="31.627403"
       y1="170.43646"
       x2="215.21906"
       y2="170.43646"
       gradientUnits="userSpaceOnUse" />
    <linearGradient
       inkscape:collect="always"
       xlink:href="#linearGradient3406"
       id="linearGradient850"
       gradientUnits="userSpaceOnUse"
       x1="31.627403"
       y1="170.43646"
       x2="215.21906"
       y2="170.43646" />
    <linearGradient
       inkscape:collect="always"
       xlink:href="#linearGradient3406"
       id="linearGradient852"
       gradientUnits="userSpaceOnUse"
       x1="31.627403"
       y1="170.43646"
       x2="215.21906"
       y2="170.43646" />
    <linearGradient
       inkscape:collect="always"
       xlink:href="#linearGradient3406"
       id="linearGradient854"
       gradientUnits="userSpaceOnUse"
       x1="31.627403"
       y1="170.43646"
       x2="215.21906"
       y2="170.43646" />
    <linearGradient
       inkscape:collect="always"
       xlink:href="#linearGradient3406"
       id="linearGradient856"
       gradientUnits="userSpaceOnUse"
       x1="31.627403"
       y1="170.43646"
       x2="215.21906"
       y2="170.43646" />
    <linearGradient
       inkscape:collect="always"
       xlink:href="#linearGradient3406"
       id="linearGradient858"
       gradientUnits="userSpaceOnUse"
       x1="31.627403"
       y1="170.43646"
       x2="215.21906"
       y2="170.43646" />
    <linearGradient
       inkscape:collect="always"
       xlink:href="#linearGradient3406"
       id="linearGradient860"
       gradientUnits="userSpaceOnUse"
       x1="31.627403"
       y1="170.43646"
       x2="215.21906"
       y2="170.43646" />
    <linearGradient
       inkscape:collect="always"
       xlink:href="#linearGradient3406"
       id="linearGradient862"
       gradientUnits="userSpaceOnUse"
       x1="31.627403"
       y1="170.43646"
       x2="215.21906"
       y2="170.43646" />
    <linearGradient
       inkscape:collect="always"
       xlink:href="#linearGradient3406"
       id="linearGradient864"
       gradientUnits="userSpaceOnUse"
       x1="31.627403"
       y1="170.43646"
       x2="215.21906"
       y2="170.43646" />
    <linearGradient
       inkscape:collect="always"
       xlink:href="#linearGradient3406"
       id="linearGradient866"
       gradientUnits="userSpaceOnUse"
       x1="31.627403"
       y1="170.43646"
       x2="215.21906"
       y2="170.43646" />
    <linearGradient
       inkscape:collect="always"
       xlink:href="#linearGradient3406"
       id="linearGradient868"
       gradientUnits="userSpaceOnUse"
       x1="31.627403"
       y1="170.43646"
       x2="215.21906"
       y2="170.43646" />
    <linearGradient
       inkscape:collect="always"
       xlink:href="#linearGradient3406"
       id="linearGradient870"
       gradientUnits="userSpaceOnUse"
       x1="31.627403"
       y1="170.43646"
       x2="215.21906"
       y2="170.43646" />
    <linearGradient
       inkscape:collect="always"
       xlink:href="#linearGradient3406"
       id="linearGradient872"
       gradientUnits="userSpaceOnUse"
       x1="31.627403"
       y1="170.43646"
       x2="215.21906"
       y2="170.43646" />
    <linearGradient
       inkscape:collect="always"
       xlink:href="#linearGradient3406"
       id="linearGradient874"
       gradientUnits="userSpaceOnUse"
       x1="31.627403"
       y1="170.43646"
       x2="215.21906"
       y2="170.43646" />
    <linearGradient
       inkscape:collect="always"
       xlink:href="#linearGradient3406"
       id="linearGradient876"
       gradientUnits="userSpaceOnUse"
       x1="31.627403"
       y1="170.43646"
       x2="215.21906"
       y2="170.43646" />
    <linearGradient
       inkscape:collect="always"
       xlink:href="#linearGradient3406"
       id="linearGradient878"
       gradientUnits="userSpaceOnUse"
       x1="31.627403"
       y1="170.43646"
       x2="215.21906"
       y2="170.43646" />
    <linearGradient
       inkscape:collect="always"
       xlink:href="#linearGradient3406"
       id="linearGradient880"
       gradientUnits="userSpaceOnUse"
       x1="31.627403"
       y1="170.43646"
       x2="215.21906"
       y2="170.43646" />
    <linearGradient
       inkscape:collect="always"
       xlink:href="#linearGradient3406"
       id="linearGradient882"
       gradientUnits="userSpaceOnUse"
       x1="31.627403"
       y1="170.43646"
       x2="215.21906"
       y2="170.43646" />
    <linearGradient
       inkscape:collect="always"
       xlink:href="#linearGradient3406"
       id="linearGradient884"
       gradientUnits="userSpaceOnUse"
       x1="31.627403"
       y1="170.43646"
       x2="215.21906"
       y2="170.43646" />
  </defs>
  <g
     inkscape:label="Layer 1"
     inkscape:groupmode="layer"
     id="layer1"
     transform="translate(-32.127403,-78.890625)">
    <g
       id="g563"
       style="stroke:url(#linearGradient3408);stroke-width:4.5;stroke-miterlimit:4;stroke-dasharray:none"
       transform="rotate(-90,123.67323,170.43646)">
      <path
         style="fill:none;stroke:url(#linearGradient850);stroke-width:4.5;stroke-miterlimit:4;stroke-dasharray:none"
         d="m 215.21906,78.890625 c 0,0 -22.88645,0 -22.88645,22.886455 0,22.88646 22.88645,22.88646 22.88645,22.88646 v 0 0"
         id="path90" />
      <path
         style="fill:none;stroke:url(#linearGradient852);stroke-width:4.5;stroke-miterlimit:4;stroke-dasharray:none"
         d="m 215.21906,124.66354 c 0,0 -22.88645,0 -22.88645,22.88646 0,22.88645 22.88645,22.88645 22.88645,22.88645"
         id="path92" />
      <path
         style="fill:none;stroke:url(#linearGradient854);stroke-width:4.5;stroke-miterlimit:4;stroke-dasharray:none"
         d="m 215.21906,170.43645 c 0,0 -22.88645,0 -22.88645,22.88646 0,22.88646 22.88645,22.88646 22.88645,22.88646"
         id="path94" />
      <path
         style="fill:none;stroke:url(#linearGradient856);stroke-width:4.5;stroke-miterlimit:4;stroke-dasharray:none"
         d="m 215.21906,216.20937 c 0,0 -22.88645,0 -22.88645,22.88646 0,22.88646 22.88645,22.88646 22.88645,22.88646"
         id="path96" />
      <path
         style="fill:none;stroke:url(#linearGradient858);stroke-width:4.5;stroke-miterlimit:4;stroke-dasharray:none"
         d="m 192.33261,239.09583 c 0,0 -22.88646,0 -22.88646,22.88646"
         id="path98" />
      <path
         style="fill:none;stroke:url(#linearGradient860);stroke-width:4.5;stroke-miterlimit:4;stroke-dasharray:none"
         d="m 192.33261,239.09583 c 0,0 -22.88646,0 -22.88646,-22.88646 0,-22.88646 22.88646,-22.88646 22.88646,-22.88646 0,0 -22.88646,0 -22.88646,-22.88646 0,-22.88645 22.88646,-22.88645 22.88646,-22.88645 0,0 -22.88646,0 -22.88646,-22.88646 0,-22.88646 22.88646,-22.88646 22.88646,-22.88646 0,0 -22.88646,0 -22.88646,-22.886455"
         id="path213" />
      <path
         style="fill:none;stroke:url(#linearGradient862);stroke-width:4.5;stroke-miterlimit:4;stroke-dasharray:none"
         d="m 169.44615,78.890625 c 0,0 -22.88646,0 -22.88646,22.886455 0,22.88646 22.88646,22.88646 22.88646,22.88646 0,0 -22.88646,0 -22.88646,22.88646 0,22.88645 22.88646,22.88645 22.88646,22.88645 0,0 -22.88646,0 -22.88646,22.88646 0,22.88646 22.88646,22.88646 22.88646,22.88646 0,0 -22.88646,0 -22.88646,22.88646 0,22.88646 22.88646,22.88646 22.88646,22.88646"
         id="path328" />
      <path
         style="fill:none;stroke:url(#linearGradient864);stroke-width:4.5;stroke-miterlimit:4;stroke-dasharray:none"
         d="m 123.67323,261.98229 c 0,0 0,-22.88646 22.88646,-22.88646"
         id="path443" />
      <path
         style="fill:none;stroke:url(#linearGradient866);stroke-width:4.5;stroke-miterlimit:4;stroke-dasharray:none"
         d="m 123.67323,216.20937 c 0,0 0,22.88646 22.88646,22.88646"
         id="path445" />
      <path
         style="fill:none;stroke:url(#linearGradient868);stroke-width:4.5;stroke-miterlimit:4;stroke-dasharray:none"
         d="m 123.67323,216.20937 c 0,0 0,-22.88646 22.88646,-22.88646"
         id="path447" />
      <path
         style="fill:none;stroke:url(#linearGradient870);stroke-width:4.5;stroke-miterlimit:4;stroke-dasharray:none"
         d="m 146.55969,193.32291 c 0,0 -22.88646,0 -22.88646,-22.88646 0,-22.88645 22.88646,-22.88645 22.88646,-22.88645 0,0 -22.88646,0 -22.88646,-22.88646 0,-22.88646 22.88646,-22.88646 22.88646,-22.88646 0,0 -22.88646,0 -22.88646,-22.886455"
         id="path449" />
      <path
         style="fill:none;stroke:url(#linearGradient872);stroke-width:4.5;stroke-miterlimit:4;stroke-dasharray:none"
         d="m 123.67323,261.98229 c 0,0 -22.88645,0 -22.88645,-22.88646 0,-22.88646 22.88645,-22.88646 22.88645,-22.88646 0,0 -22.88645,0 -22.88645,-22.88646 0,-22.88646 22.88645,-22.88646 22.88645,-22.88646 0,0 -22.88645,0 -22.88645,-22.88645 0,-22.88646 22.88645,-22.88646 22.88645,-22.88646 0,0 -22.88645,0 -22.88645,-22.88646 0,-22.886455 22.88645,-22.886455 22.88645,-22.886455"
         id="path451" />
      <path
         style="fill:none;stroke:url(#linearGradient874);stroke-width:4.5;stroke-miterlimit:4;stroke-dasharray:none"
         d="m 77.900319,78.890625 c 0,0 0,22.886455 22.886461,22.886455"
         id="path453" />
      <path
         style="fill:none;stroke:url(#linearGradient876);stroke-width:4.5;stroke-miterlimit:4;stroke-dasharray:none"
         d="m 77.900319,124.66354 c 0,0 0,-22.88646 22.886461,-22.88646"
         id="path455" />
      <path
         style="fill:none;stroke:url(#linearGradient878);stroke-width:4.5;stroke-miterlimit:4;stroke-dasharray:none"
         d="m 77.900319,261.98229 c 0,0 0,-22.88646 22.886461,-22.88646"
         id="path457" />
      <path
         style="fill:none;stroke:url(#linearGradient880);stroke-width:4.5;stroke-miterlimit:4;stroke-dasharray:none"
         d="m 100.78678,239.09583 c 0,0 -22.886461,0 -22.886461,-22.88646 0,-22.88646 22.886461,-22.88646 22.886461,-22.88646 0,0 -22.886461,0 -22.886461,-22.88646 0,-22.88645 22.886461,-22.88645 22.886461,-22.88645 0,0 -22.886461,0 -22.886461,-22.88646"
         id="path459" />
      <path
         style="fill:none;stroke:url(#linearGradient882);stroke-width:4.5;stroke-miterlimit:4;stroke-dasharray:none"
         d="m 77.900319,78.890625 c 0,0 -22.886458,0 -22.886458,22.886455 0,22.88646 22.886458,22.88646 22.886458,22.88646 0,0 -22.886458,0 -22.886458,22.88646 0,22.88645 22.886458,22.88645 22.886458,22.88645 0,0 -22.886458,0 -22.886458,22.88646 0,22.88646 22.886458,22.88646 22.886458,22.88646 0,0 -22.886458,0 -22.886458,22.88646 0,22.88646 22.886458,22.88646 22.886458,22.88646"
         id="path461" />
      <path
         style="fill:none;stroke:url(#linearGradient884);stroke-width:4.5;stroke-miterlimit:4;stroke-dasharray:none"
         d="m 32.127403,261.98229 c 0,-22.88646 22.886458,-22.88646 22.886458,-22.88646 0,0 -22.886458,0 -22.886458,-22.88646 0,-22.88645 22.886458,-22.88645 22.886458,-22.88645 0,0 -22.886458,0 -22.886458,-22.88646 0,-22.88646 22.886458,-22.88646 22.886458,-22.88646 0,0 -22.886458,0 -22.886458,-22.88646 0,-22.88646 22.886458,-22.88646 22.886458,-22.88646 0,0 -22.886458,0 -22.886458,-22.886455"
         id="path463" />
    </g>
    <path
       style="fill:none;stroke:#000000;stroke-width:4.52804;stroke-linecap:butt;stroke-linejoin:miter;stroke-miterlimit:4;stroke-dasharray:none;stroke-opacity:1"
       d="m 212.96339,76.60199 v 185.3803 0"
       id="path3443" />
    <path
       style="fill:none;stroke:#000000;stroke-width:4.52804;stroke-linecap:butt;stroke-linejoin:miter;stroke-miterlimit:4;stroke-dasharray:none;stroke-opacity:1"
       d="m 34.404149,78.890625 v 185.380295 0"
       id="path3443-8" />
  </g>
</svg>
